<?xml version="1.0" encoding="UTF-8"?>
<svg xmlns="http://www.w3.org/2000/svg" xml:space="preserve" width="88" height="66"><path d="M44.808 16.441c-.1-2.178-1.47-3.805-4.763-4.82-3.29-1.102-7.866-1.513-11.89-1.513-5.495 0-14.454.672-14.454 4.052.728 4.302 19.396 5.228 37.876 7.603 18.481 2.357 36.78 6.333 36.78 17.401l-.003.26c-4.082-8.99-23.979-11.27-43.887-13.159C22.324 24.16 0 22.558 0 12.85 0 2.884 21.044.006 35.867.006c24.156 0 40.987 5.642 41.904 15.947 0 0-16.253 3.657-32.963.488" fill="#d11a35"/><path d="M1.016 49.987C.738 55.836 4.91 58.39 10.58 58.39c8.498 0 9.177-5.213 9.177-6.851 0-3.932-2.828-5.409-6.219-6.318l-5.844-1.445c-1.945-.47-3.626-1.409-3.626-3.657 0-3.572 2.887-4.771 6.014-4.771 3.392 0 6.407 1.852 6.553 5.506h2.284c.032-4.904-4.139-7.458-8.87-7.458-6.753 0-8.265 4.397-8.265 6.753 0 3.727 2.587 5.072 5.408 5.775l5.343 1.312c2.206.536 4.931 1.616 4.931 4.332 0 3.487-3.822 4.87-6.346 4.87-4.365 0-7.923-1.511-7.824-6.452H1.016M26.594 35.349H24.49v5.206h-3.025v1.786h3.025V54.19c-.04 2.954.93 3.898 3.753 3.898.648 0 1.245-.065 1.885-.065v-1.815c-.607.066-1.211.099-1.82.099-1.5-.1-1.714-.91-1.714-2.284v-11.68h3.534v-1.787h-3.534v-5.206" fill="#ffffff"/><path d="M35.362 45.856c.067-2.824 2.02-4.027 4.629-4.027 2.484 0 4.544.71 4.544 3.562 0 1.915-.975 2.153-2.727 2.353-4.558.532-9.29.704-9.29 5.57 0 3.502 2.608 5.077 5.802 5.077 3.328 0 4.834-1.276 6.309-3.53h.067c0 1.81.339 3.02 2.486 3.02.576 0 .907-.028 1.374-.127v-1.78c-.16.071-.43.13-.668.13-.84 0-1.237-.47-1.237-1.28v-9.198c0-4.634-3.328-5.58-6.389-5.58-3.967 0-6.82 1.75-7.019 5.81h2.119zm9.173 5.313c.031 3.392-2.827 5.435-6.045 5.435-1.985 0-3.865-1.305-3.865-3.426 0-3.392 4.467-3.353 8.061-3.99.572-.102 1.504-.272 1.781-.77h.068v2.751M65.785 40.555h-2.116v2.988h-.068c-.84-1.914-2.989-3.498-5.514-3.498-4.998 0-7.821 3.966-7.821 8.742 0 4.934 2.283 8.896 7.82 8.896 2.495 0 4.54-1.439 5.515-3.562h.068v2.358c0 4.226-1.678 6.545-5.582 6.545-2.346 0-4.602-.911-5.066-3.455h-2.124c.3 3.69 3.732 5.236 7.19 5.236 5.675 0 7.658-3.16 7.698-8.326V40.555zm-7.698 15.349c-3.892 0-5.711-3.395-5.711-6.882 0-3.594 1.681-7.193 5.71-7.193 4.005 0 5.583 3.797 5.583 7.193 0 3.522-1.914 6.882-5.582 6.882M71.316 48.009c.332-3.154 2.25-6.18 5.715-6.18 3.417 0 5.403 2.997 5.504 6.18H71.316zm13.332 1.777c.175-4.871-2.047-9.74-7.617-9.74-5.513 0-7.83 4.603-7.83 9.167 0 4.942 2.317 9.178 7.83 9.178 4.368 0 6.648-2.287 7.553-6.214h-2.113c-.672 2.615-2.353 4.427-5.44 4.427-4.065 0-5.68-3.721-5.715-6.818h13.332" fill="#ffffff" fill-rule="evenodd"/></svg>